<svg xmlns="http://www.w3.org/2000/svg" width="900" height="520" viewBox="0 0 900 520" role="img" aria-label="data request illustration">
<defs>
<linearGradient id="bg" x1="0" y1="0" x2="1" y2="1"><stop stop-color="#4DA3FF"/><stop offset="1" stop-color="#7C5CFC"/></linearGradient>
<radialGradient id="halo"><stop stop-color="#fff" stop-opacity=".28"/><stop offset="1" stop-color="#fff" stop-opacity="0"/></radialGradient>
<pattern id="grid" width="44" height="44" patternUnits="userSpaceOnUse"><path d="M44 0H0v44" fill="none" stroke="#fff" stroke-opacity=".075"/></pattern>
</defs>
<rect width="900" height="520" rx="32" fill="#07121f"/>
<rect x="10" y="10" width="880" height="500" rx="26" fill="url(#bg)"/>
<rect x="10" y="10" width="880" height="500" rx="26" fill="url(#grid)"/>
<circle cx="118" cy="68" r="230" fill="url(#halo)"/><circle cx="810" cy="472" r="280" fill="url(#halo)"/>
<path d="M-40 410C160 275 232 490 455 336s290-60 500-200" fill="none" stroke="#fff" stroke-opacity=".12" stroke-width="36"/>
<g>
<rect x="145" y="62" width="610" height="396" rx="42" fill="#081423" fill-opacity=".38" stroke="#fff" stroke-opacity=".22" stroke-width="2"/>
<g fill="none" stroke="#fff" stroke-width="13" stroke-linecap="round" stroke-linejoin="round"><ellipse cx="425" cy="174" rx="170" ry="62"/><path d="M255 174v172c0 34 76 62 170 62s170-28 170-62V174"/><path d="M255 260c0 34 76 62 170 62s170-28 170-62"/><path d="M255 346c0 34 76 62 170 62s170-28 170-62"/><path d="M620 250 720 285v74c0 62-37 102-100 130-63-28-100-68-100-130v-74l100-35Z" class="solid"/><path d="m579 358 28 28 57-68"/></g>
<g class="solid" fill="#081423" fill-opacity=".72" stroke="none"></g>
</g>
<style>.solid{fill:#081423;fill-opacity:.74;stroke:#fff;stroke-width:8}.accent{stroke:#9CFFDE}</style>
</svg>