<svg xmlns="http://www.w3.org/2000/svg" width="900" height="520" viewBox="0 0 900 520" role="img" aria-label="suspicious bag illustration">
<defs>
<linearGradient id="bg" x1="0" y1="0" x2="1" y2="1"><stop stop-color="#FFB14A"/><stop offset="1" stop-color="#E25467"/></linearGradient>
<radialGradient id="halo"><stop stop-color="#fff" stop-opacity=".28"/><stop offset="1" stop-color="#fff" stop-opacity="0"/></radialGradient>
<pattern id="grid" width="44" height="44" patternUnits="userSpaceOnUse"><path d="M44 0H0v44" fill="none" stroke="#fff" stroke-opacity=".075"/></pattern>
</defs>
<rect width="900" height="520" rx="32" fill="#07121f"/>
<rect x="10" y="10" width="880" height="500" rx="26" fill="url(#bg)"/>
<rect x="10" y="10" width="880" height="500" rx="26" fill="url(#grid)"/>
<circle cx="118" cy="68" r="230" fill="url(#halo)"/><circle cx="810" cy="472" r="280" fill="url(#halo)"/>
<path d="M-40 410C160 275 232 490 455 336s290-60 500-200" fill="none" stroke="#fff" stroke-opacity=".12" stroke-width="36"/>
<g>
<rect x="145" y="62" width="610" height="396" rx="42" fill="#081423" fill-opacity=".38" stroke="#fff" stroke-opacity=".22" stroke-width="2"/>
<g fill="none" stroke="#fff" stroke-width="13" stroke-linecap="round" stroke-linejoin="round"><path d="M341 211c0-69 45-111 109-111s109 42 109 111"/><rect x="282" y="188" width="336" height="252" rx="52"/><path d="M361 188v252M539 188v252M324 282h252"/><circle cx="620" cy="354" r="65" class="solid"/><path d="M620 319v43M620 386h1"/></g>
<g class="solid" fill="#081423" fill-opacity=".72" stroke="none"></g>
</g>
<style>.solid{fill:#081423;fill-opacity:.74;stroke:#fff;stroke-width:8}.accent{stroke:#9CFFDE}</style>
</svg>